<mxfile host="65bd71144e">
    <diagram id="mbqDmZgXnPuwwgB2iTlj" name="Page-1">
        <mxGraphModel dx="1590" dy="747" grid="1" gridSize="10" guides="1" tooltips="1" connect="1" arrows="1" fold="1" page="1" pageScale="1" pageWidth="850" pageHeight="1100" math="0" shadow="0">
            <root>
                <mxCell id="0"/>
                <mxCell id="1" parent="0"/>
                <mxCell id="2" value="" style="ellipse;" parent="1" vertex="1">
                    <mxGeometry x="395" y="40" width="30" height="30" as="geometry"/>
                </mxCell>
                <mxCell id="3" value="" style="edgeStyle=elbowEdgeStyle;elbow=vertical;endArrow=classic;html=1;curved=0;rounded=0;endSize=8;startSize=8;" parent="1" edge="1">
                    <mxGeometry width="50" height="50" relative="1" as="geometry">
                        <mxPoint x="410" y="70" as="sourcePoint"/>
                        <mxPoint x="80" y="110" as="targetPoint"/>
                    </mxGeometry>
                </mxCell>
                <mxCell id="4" value="Go to payment receipts section" style="rounded=0;whiteSpace=wrap;html=1;" parent="1" vertex="1">
                    <mxGeometry x="20" y="110" width="120" height="60" as="geometry"/>
                </mxCell>
                <mxCell id="5" value="" style="endArrow=classic;html=1;" parent="1" edge="1">
                    <mxGeometry width="50" height="50" relative="1" as="geometry">
                        <mxPoint x="80" y="170" as="sourcePoint"/>
                        <mxPoint x="80" y="200" as="targetPoint"/>
                    </mxGeometry>
                </mxCell>
                <mxCell id="6" value="Selects desired payment period or transaction" style="rounded=0;whiteSpace=wrap;html=1;" parent="1" vertex="1">
                    <mxGeometry x="20" y="200" width="120" height="60" as="geometry"/>
                </mxCell>
                <mxCell id="7" value="" style="edgeStyle=elbowEdgeStyle;elbow=vertical;endArrow=classic;html=1;curved=0;rounded=0;endSize=8;startSize=8;" parent="1" edge="1">
                    <mxGeometry width="50" height="50" relative="1" as="geometry">
                        <mxPoint x="80" y="260" as="sourcePoint"/>
                        <mxPoint x="400" y="285" as="targetPoint"/>
                    </mxGeometry>
                </mxCell>
                <mxCell id="8" value="Retrieve corresponding payment receipt" style="rounded=0;whiteSpace=wrap;html=1;" parent="1" vertex="1">
                    <mxGeometry x="338" y="287" width="120" height="60" as="geometry"/>
                </mxCell>
                <mxCell id="9" value="" style="endArrow=classic;html=1;" parent="1" edge="1">
                    <mxGeometry width="50" height="50" relative="1" as="geometry">
                        <mxPoint x="400" y="350" as="sourcePoint"/>
                        <mxPoint x="400" y="380" as="targetPoint"/>
                    </mxGeometry>
                </mxCell>
                <mxCell id="11" value="Payment receipt available?" style="rhombus;whiteSpace=wrap;html=1;" parent="1" vertex="1">
                    <mxGeometry x="358" y="380" width="80" height="80" as="geometry"/>
                </mxCell>
                <mxCell id="12" value="" style="endArrow=classic;html=1;" parent="1" edge="1">
                    <mxGeometry width="50" height="50" relative="1" as="geometry">
                        <mxPoint x="400" y="460" as="sourcePoint"/>
                        <mxPoint x="400" y="480" as="targetPoint"/>
                    </mxGeometry>
                </mxCell>
                <mxCell id="31" value="" style="edgeStyle=none;html=1;" parent="1" source="13" target="14" edge="1">
                    <mxGeometry relative="1" as="geometry"/>
                </mxCell>
                <mxCell id="13" value="Yes" style="text;html=1;align=center;verticalAlign=middle;resizable=0;points=[];autosize=1;strokeColor=none;fillColor=none;" parent="1" vertex="1">
                    <mxGeometry x="358" y="455" width="40" height="30" as="geometry"/>
                </mxCell>
                <mxCell id="14" value="&lt;font color=&quot;#18141d&quot;&gt;Display available payment receipts&lt;/font&gt;" style="shape=parallelogram;perimeter=parallelogramPerimeter;whiteSpace=wrap;html=1;fixedSize=1;fontFamily=Helvetica;fontSize=12;fontColor=rgb(240, 240, 240);align=center;strokeColor=#18141D;fillColor=#FFFFFF;" parent="1" vertex="1">
                    <mxGeometry x="338" y="482" width="120" height="60" as="geometry"/>
                </mxCell>
                <mxCell id="15" value="" style="edgeStyle=elbowEdgeStyle;elbow=vertical;endArrow=classic;html=1;curved=0;rounded=0;endSize=8;startSize=8;" parent="1" edge="1">
                    <mxGeometry width="50" height="50" relative="1" as="geometry">
                        <mxPoint x="400" y="547" as="sourcePoint"/>
                        <mxPoint x="80" y="570" as="targetPoint"/>
                    </mxGeometry>
                </mxCell>
                <mxCell id="16" value="Selects payment receipt to download" style="rounded=0;whiteSpace=wrap;html=1;" parent="1" vertex="1">
                    <mxGeometry x="20" y="570" width="120" height="60" as="geometry"/>
                </mxCell>
                <mxCell id="17" value="" style="edgeStyle=elbowEdgeStyle;elbow=vertical;endArrow=classic;html=1;curved=0;rounded=0;endSize=8;startSize=8;" parent="1" edge="1">
                    <mxGeometry width="50" height="50" relative="1" as="geometry">
                        <mxPoint x="78" y="630" as="sourcePoint"/>
                        <mxPoint x="398" y="655" as="targetPoint"/>
                    </mxGeometry>
                </mxCell>
                <mxCell id="19" value="Generate and provide downloable payment receipt" style="rounded=0;whiteSpace=wrap;html=1;" parent="1" vertex="1">
                    <mxGeometry x="338" y="650" width="120" height="60" as="geometry"/>
                </mxCell>
                <mxCell id="20" value="" style="edgeStyle=elbowEdgeStyle;elbow=vertical;endArrow=classic;html=1;curved=0;rounded=0;endSize=8;startSize=8;" parent="1" edge="1">
                    <mxGeometry width="50" height="50" relative="1" as="geometry">
                        <mxPoint x="403" y="710" as="sourcePoint"/>
                        <mxPoint x="83" y="733" as="targetPoint"/>
                        <Array as="points">
                            <mxPoint x="253" y="722"/>
                        </Array>
                    </mxGeometry>
                </mxCell>
                <mxCell id="21" value="Download payment receipt" style="rounded=0;whiteSpace=wrap;html=1;" parent="1" vertex="1">
                    <mxGeometry x="20" y="730" width="120" height="60" as="geometry"/>
                </mxCell>
                <mxCell id="22" value="" style="endArrow=classic;html=1;" parent="1" edge="1">
                    <mxGeometry width="50" height="50" relative="1" as="geometry">
                        <mxPoint x="80" y="790" as="sourcePoint"/>
                        <mxPoint x="80" y="810" as="targetPoint"/>
                    </mxGeometry>
                </mxCell>
                <mxCell id="23" value="" style="shape=sumEllipse;perimeter=ellipsePerimeter;whiteSpace=wrap;html=1;backgroundOutline=1;" parent="1" vertex="1">
                    <mxGeometry x="65" y="810" width="30" height="30" as="geometry"/>
                </mxCell>
                <mxCell id="24" value="" style="endArrow=classic;html=1;" parent="1" edge="1">
                    <mxGeometry width="50" height="50" relative="1" as="geometry">
                        <mxPoint x="440" y="420" as="sourcePoint"/>
                        <mxPoint x="490" y="420" as="targetPoint"/>
                    </mxGeometry>
                </mxCell>
                <mxCell id="25" value="No" style="text;html=1;align=center;verticalAlign=middle;resizable=0;points=[];autosize=1;strokeColor=none;fillColor=none;" parent="1" vertex="1">
                    <mxGeometry x="440" y="395" width="40" height="30" as="geometry"/>
                </mxCell>
                <mxCell id="26" value="Display &quot;Error&quot;" style="shape=parallelogram;perimeter=parallelogramPerimeter;whiteSpace=wrap;html=1;fixedSize=1;" parent="1" vertex="1">
                    <mxGeometry x="480" y="395" width="120" height="60" as="geometry"/>
                </mxCell>
                <mxCell id="27" value="" style="edgeStyle=elbowEdgeStyle;elbow=vertical;endArrow=classic;html=1;curved=0;rounded=0;endSize=8;startSize=8;" parent="1" source="26" edge="1">
                    <mxGeometry width="50" height="50" relative="1" as="geometry">
                        <mxPoint x="540" y="390" as="sourcePoint"/>
                        <mxPoint x="290" y="160" as="targetPoint"/>
                        <Array as="points">
                            <mxPoint x="290" y="160"/>
                        </Array>
                    </mxGeometry>
                </mxCell>
                <mxCell id="28" value="Go back to payment history" style="rounded=0;whiteSpace=wrap;html=1;" parent="1" vertex="1">
                    <mxGeometry x="170" y="132" width="120" height="60" as="geometry"/>
                </mxCell>
                <mxCell id="29" value="Student" style="swimlane;whiteSpace=wrap;html=1;" parent="1" vertex="1">
                    <mxGeometry width="320" height="860" as="geometry"/>
                </mxCell>
                <mxCell id="30" value="System" style="swimlane;whiteSpace=wrap;html=1;" parent="1" vertex="1">
                    <mxGeometry x="320" width="320" height="860" as="geometry"/>
                </mxCell>
            </root>
        </mxGraphModel>
    </diagram>
</mxfile>